<mxfile host="Electron" agent="Mozilla/5.0 (Macintosh; Intel Mac OS X 10_15_7) AppleWebKit/537.36 (KHTML, like Gecko) draw.io/26.1.1 Chrome/132.0.6834.210 Electron/34.3.3 Safari/537.36" version="26.1.1">
  <diagram name="Page-1" id="iym9M80OgAX1qWP0OYkz">
    <mxGraphModel dx="742" dy="1473" grid="1" gridSize="10" guides="1" tooltips="1" connect="1" arrows="1" fold="1" page="1" pageScale="1" pageWidth="850" pageHeight="1100" math="0" shadow="0">
      <root>
        <mxCell id="0" />
        <mxCell id="1" parent="0" />
        <mxCell id="M3dlWLlhvhkL5nvw9kXW-1" value="" style="rhombus;whiteSpace=wrap;html=1;" vertex="1" parent="1">
          <mxGeometry x="175" y="70" width="80" height="80" as="geometry" />
        </mxCell>
        <mxCell id="M3dlWLlhvhkL5nvw9kXW-2" value="OPENS" style="rhombus;whiteSpace=wrap;html=1;" vertex="1" parent="1">
          <mxGeometry x="182.5" y="75" width="65" height="70" as="geometry" />
        </mxCell>
        <mxCell id="M3dlWLlhvhkL5nvw9kXW-9" value="" style="endArrow=none;html=1;rounded=0;" edge="1" parent="1">
          <mxGeometry width="50" height="50" relative="1" as="geometry">
            <mxPoint x="290" y="220" as="sourcePoint" />
            <mxPoint x="210" y="145" as="targetPoint" />
          </mxGeometry>
        </mxCell>
        <mxCell id="M3dlWLlhvhkL5nvw9kXW-10" value="" style="rounded=0;whiteSpace=wrap;html=1;" vertex="1" parent="1">
          <mxGeometry x="280" y="180" width="120" height="60" as="geometry" />
        </mxCell>
        <mxCell id="M3dlWLlhvhkL5nvw9kXW-11" value="CLASS" style="rounded=0;whiteSpace=wrap;html=1;" vertex="1" parent="1">
          <mxGeometry x="290" y="185" width="100" height="50" as="geometry" />
        </mxCell>
        <mxCell id="M3dlWLlhvhkL5nvw9kXW-12" value="" style="endArrow=none;html=1;rounded=0;" edge="1" parent="1">
          <mxGeometry width="50" height="50" relative="1" as="geometry">
            <mxPoint x="200" y="90" as="sourcePoint" />
            <mxPoint x="142.5" y="20" as="targetPoint" />
          </mxGeometry>
        </mxCell>
        <mxCell id="M3dlWLlhvhkL5nvw9kXW-13" value="" style="endArrow=none;html=1;rounded=0;exitX=1;exitY=0;exitDx=0;exitDy=0;" edge="1" parent="1" source="M3dlWLlhvhkL5nvw9kXW-2">
          <mxGeometry width="50" height="50" relative="1" as="geometry">
            <mxPoint x="240" y="90" as="sourcePoint" />
            <mxPoint x="290" y="40" as="targetPoint" />
          </mxGeometry>
        </mxCell>
        <mxCell id="M3dlWLlhvhkL5nvw9kXW-14" value="SUBJECT" style="rounded=0;whiteSpace=wrap;html=1;" vertex="1" parent="1">
          <mxGeometry x="100" y="-30" width="100" height="50" as="geometry" />
        </mxCell>
        <mxCell id="M3dlWLlhvhkL5nvw9kXW-15" value="SEMESTER" style="rounded=0;whiteSpace=wrap;html=1;" vertex="1" parent="1">
          <mxGeometry x="260" y="-10" width="100" height="50" as="geometry" />
        </mxCell>
        <mxCell id="M3dlWLlhvhkL5nvw9kXW-16" value="&lt;u&gt;SubjectID&lt;/u&gt;" style="ellipse;whiteSpace=wrap;html=1;" vertex="1" parent="1">
          <mxGeometry x="20" y="-110" width="110" height="50" as="geometry" />
        </mxCell>
        <mxCell id="M3dlWLlhvhkL5nvw9kXW-17" value="SubjectName" style="ellipse;whiteSpace=wrap;html=1;" vertex="1" parent="1">
          <mxGeometry x="157.5" y="-110" width="115" height="50" as="geometry" />
        </mxCell>
        <mxCell id="M3dlWLlhvhkL5nvw9kXW-18" value="" style="endArrow=none;html=1;rounded=0;exitX=0.5;exitY=0;exitDx=0;exitDy=0;" edge="1" parent="1" source="M3dlWLlhvhkL5nvw9kXW-14">
          <mxGeometry width="50" height="50" relative="1" as="geometry">
            <mxPoint x="130" y="10" as="sourcePoint" />
            <mxPoint x="72.5" y="-60" as="targetPoint" />
          </mxGeometry>
        </mxCell>
        <mxCell id="M3dlWLlhvhkL5nvw9kXW-19" value="" style="endArrow=none;html=1;rounded=0;exitX=0.672;exitY=-0.01;exitDx=0;exitDy=0;exitPerimeter=0;" edge="1" parent="1" source="M3dlWLlhvhkL5nvw9kXW-14">
          <mxGeometry width="50" height="50" relative="1" as="geometry">
            <mxPoint x="271.5" y="-30" as="sourcePoint" />
            <mxPoint x="200" y="-62" as="targetPoint" />
          </mxGeometry>
        </mxCell>
        <mxCell id="M3dlWLlhvhkL5nvw9kXW-20" value="" style="endArrow=none;html=1;rounded=0;exitX=0.438;exitY=0.04;exitDx=0;exitDy=0;exitPerimeter=0;" edge="1" parent="1" target="M3dlWLlhvhkL5nvw9kXW-21">
          <mxGeometry width="50" height="50" relative="1" as="geometry">
            <mxPoint x="311.5" y="-10" as="sourcePoint" />
            <mxPoint x="290" y="-50" as="targetPoint" />
          </mxGeometry>
        </mxCell>
        <mxCell id="M3dlWLlhvhkL5nvw9kXW-21" value="&lt;u&gt;SemesterID&lt;/u&gt;" style="ellipse;whiteSpace=wrap;html=1;" vertex="1" parent="1">
          <mxGeometry x="285" y="-90" width="110" height="50" as="geometry" />
        </mxCell>
        <mxCell id="M3dlWLlhvhkL5nvw9kXW-24" value="StartTime" style="ellipse;whiteSpace=wrap;html=1;" vertex="1" parent="1">
          <mxGeometry x="395" y="-70" width="115" height="50" as="geometry" />
        </mxCell>
        <mxCell id="M3dlWLlhvhkL5nvw9kXW-25" value="" style="endArrow=none;html=1;rounded=0;exitX=0.75;exitY=0;exitDx=0;exitDy=0;" edge="1" parent="1" source="M3dlWLlhvhkL5nvw9kXW-15" target="M3dlWLlhvhkL5nvw9kXW-24">
          <mxGeometry width="50" height="50" relative="1" as="geometry">
            <mxPoint x="330" y="-15" as="sourcePoint" />
            <mxPoint x="410" y="-30" as="targetPoint" />
          </mxGeometry>
        </mxCell>
        <mxCell id="M3dlWLlhvhkL5nvw9kXW-27" value="" style="endArrow=none;html=1;rounded=0;" edge="1" parent="1">
          <mxGeometry width="50" height="50" relative="1" as="geometry">
            <mxPoint x="370" y="130" as="sourcePoint" />
            <mxPoint x="340" y="180" as="targetPoint" />
          </mxGeometry>
        </mxCell>
        <mxCell id="M3dlWLlhvhkL5nvw9kXW-28" value="&lt;u&gt;Number&lt;/u&gt;" style="ellipse;whiteSpace=wrap;html=1;" vertex="1" parent="1">
          <mxGeometry x="310" y="95" width="115" height="50" as="geometry" />
        </mxCell>
        <mxCell id="M3dlWLlhvhkL5nvw9kXW-29" value="1" style="text;html=1;align=center;verticalAlign=middle;whiteSpace=wrap;rounded=0;" vertex="1" parent="1">
          <mxGeometry x="122.5" y="45" width="60" height="30" as="geometry" />
        </mxCell>
        <mxCell id="M3dlWLlhvhkL5nvw9kXW-30" value="1" style="text;html=1;align=center;verticalAlign=middle;whiteSpace=wrap;rounded=0;" vertex="1" parent="1">
          <mxGeometry x="260" y="55" width="60" height="30" as="geometry" />
        </mxCell>
        <mxCell id="M3dlWLlhvhkL5nvw9kXW-31" value="N" style="text;html=1;align=center;verticalAlign=middle;whiteSpace=wrap;rounded=0;" vertex="1" parent="1">
          <mxGeometry x="187.5" y="170" width="60" height="30" as="geometry" />
        </mxCell>
        <mxCell id="M3dlWLlhvhkL5nvw9kXW-32" value="STUDIES" style="rhombus;whiteSpace=wrap;html=1;" vertex="1" parent="1">
          <mxGeometry x="470" y="175" width="80" height="70" as="geometry" />
        </mxCell>
        <mxCell id="M3dlWLlhvhkL5nvw9kXW-33" value="Score" style="ellipse;whiteSpace=wrap;html=1;" vertex="1" parent="1">
          <mxGeometry x="580" y="185" width="115" height="50" as="geometry" />
        </mxCell>
        <mxCell id="M3dlWLlhvhkL5nvw9kXW-34" value="" style="endArrow=none;html=1;rounded=0;exitX=0;exitY=0.5;exitDx=0;exitDy=0;" edge="1" parent="1" source="M3dlWLlhvhkL5nvw9kXW-33">
          <mxGeometry width="50" height="50" relative="1" as="geometry">
            <mxPoint x="580" y="160" as="sourcePoint" />
            <mxPoint x="550" y="210" as="targetPoint" />
          </mxGeometry>
        </mxCell>
        <mxCell id="M3dlWLlhvhkL5nvw9kXW-35" value="" style="endArrow=none;html=1;rounded=0;exitX=0;exitY=0.5;exitDx=0;exitDy=0;" edge="1" parent="1" source="M3dlWLlhvhkL5nvw9kXW-32">
          <mxGeometry width="50" height="50" relative="1" as="geometry">
            <mxPoint x="480" y="285" as="sourcePoint" />
            <mxPoint x="400" y="210" as="targetPoint" />
          </mxGeometry>
        </mxCell>
        <mxCell id="M3dlWLlhvhkL5nvw9kXW-36" value="N" style="text;html=1;align=center;verticalAlign=middle;whiteSpace=wrap;rounded=0;" vertex="1" parent="1">
          <mxGeometry x="410" y="180" width="60" height="30" as="geometry" />
        </mxCell>
        <mxCell id="M3dlWLlhvhkL5nvw9kXW-37" value="" style="endArrow=none;html=1;rounded=0;" edge="1" parent="1">
          <mxGeometry width="50" height="50" relative="1" as="geometry">
            <mxPoint x="510" y="125" as="sourcePoint" />
            <mxPoint x="510" y="175" as="targetPoint" />
          </mxGeometry>
        </mxCell>
        <mxCell id="M3dlWLlhvhkL5nvw9kXW-38" value="N" style="text;html=1;align=center;verticalAlign=middle;whiteSpace=wrap;rounded=0;" vertex="1" parent="1">
          <mxGeometry x="500" y="140" width="60" height="30" as="geometry" />
        </mxCell>
        <mxCell id="M3dlWLlhvhkL5nvw9kXW-39" value="STUDENT" style="rounded=0;whiteSpace=wrap;html=1;" vertex="1" parent="1">
          <mxGeometry x="470" y="80" width="100" height="50" as="geometry" />
        </mxCell>
        <mxCell id="M3dlWLlhvhkL5nvw9kXW-40" value="&lt;u&gt;StudentID&lt;/u&gt;" style="ellipse;whiteSpace=wrap;html=1;" vertex="1" parent="1">
          <mxGeometry x="425" width="115" height="50" as="geometry" />
        </mxCell>
        <mxCell id="M3dlWLlhvhkL5nvw9kXW-41" value="" style="endArrow=none;html=1;rounded=0;" edge="1" parent="1" target="M3dlWLlhvhkL5nvw9kXW-39">
          <mxGeometry width="50" height="50" relative="1" as="geometry">
            <mxPoint x="480" y="50" as="sourcePoint" />
            <mxPoint x="450" y="100" as="targetPoint" />
          </mxGeometry>
        </mxCell>
        <mxCell id="M3dlWLlhvhkL5nvw9kXW-42" value="" style="endArrow=none;html=1;rounded=0;entryX=0.5;entryY=0;entryDx=0;entryDy=0;exitX=0;exitY=1;exitDx=0;exitDy=0;" edge="1" parent="1" source="M3dlWLlhvhkL5nvw9kXW-43" target="M3dlWLlhvhkL5nvw9kXW-39">
          <mxGeometry width="50" height="50" relative="1" as="geometry">
            <mxPoint x="560" y="30" as="sourcePoint" />
            <mxPoint x="530" y="80" as="targetPoint" />
          </mxGeometry>
        </mxCell>
        <mxCell id="M3dlWLlhvhkL5nvw9kXW-43" value="FirstName-Init" style="ellipse;whiteSpace=wrap;html=1;" vertex="1" parent="1">
          <mxGeometry x="550" y="-20" width="115" height="50" as="geometry" />
        </mxCell>
        <mxCell id="M3dlWLlhvhkL5nvw9kXW-44" value="" style="endArrow=none;html=1;rounded=0;entryX=0.5;entryY=0;entryDx=0;entryDy=0;exitX=0;exitY=0.5;exitDx=0;exitDy=0;exitPerimeter=0;" edge="1" parent="1" source="M3dlWLlhvhkL5nvw9kXW-45">
          <mxGeometry width="50" height="50" relative="1" as="geometry">
            <mxPoint x="610" y="55" as="sourcePoint" />
            <mxPoint x="530" y="80" as="targetPoint" />
          </mxGeometry>
        </mxCell>
        <mxCell id="M3dlWLlhvhkL5nvw9kXW-45" value="LastName" style="ellipse;whiteSpace=wrap;html=1;" vertex="1" parent="1">
          <mxGeometry x="590" y="35" width="115" height="50" as="geometry" />
        </mxCell>
        <mxCell id="M3dlWLlhvhkL5nvw9kXW-46" value="" style="endArrow=none;html=1;rounded=0;exitX=0.011;exitY=0.394;exitDx=0;exitDy=0;entryX=0.585;entryY=0.945;entryDx=0;entryDy=0;entryPerimeter=0;exitPerimeter=0;" edge="1" parent="1" source="M3dlWLlhvhkL5nvw9kXW-10" target="M3dlWLlhvhkL5nvw9kXW-2">
          <mxGeometry width="50" height="50" relative="1" as="geometry">
            <mxPoint x="182.5" y="185" as="sourcePoint" />
            <mxPoint x="232.5" y="135" as="targetPoint" />
          </mxGeometry>
        </mxCell>
        <mxCell id="M3dlWLlhvhkL5nvw9kXW-48" value="" style="endArrow=none;html=1;rounded=0;entryX=0.585;entryY=0.945;entryDx=0;entryDy=0;entryPerimeter=0;" edge="1" parent="1">
          <mxGeometry width="50" height="50" relative="1" as="geometry">
            <mxPoint x="320" y="280" as="sourcePoint" />
            <mxPoint x="335" y="240" as="targetPoint" />
          </mxGeometry>
        </mxCell>
        <mxCell id="M3dlWLlhvhkL5nvw9kXW-50" value="TEACHES" style="rhombus;whiteSpace=wrap;html=1;" vertex="1" parent="1">
          <mxGeometry x="260" y="260" width="80" height="70" as="geometry" />
        </mxCell>
        <mxCell id="M3dlWLlhvhkL5nvw9kXW-52" value="" style="endArrow=none;html=1;rounded=0;entryX=0.585;entryY=0.945;entryDx=0;entryDy=0;entryPerimeter=0;" edge="1" parent="1">
          <mxGeometry width="50" height="50" relative="1" as="geometry">
            <mxPoint x="285" y="370" as="sourcePoint" />
            <mxPoint x="300" y="330" as="targetPoint" />
          </mxGeometry>
        </mxCell>
        <mxCell id="M3dlWLlhvhkL5nvw9kXW-53" value="N" style="text;html=1;align=center;verticalAlign=middle;whiteSpace=wrap;rounded=0;" vertex="1" parent="1">
          <mxGeometry x="320" y="250" width="60" height="30" as="geometry" />
        </mxCell>
        <mxCell id="M3dlWLlhvhkL5nvw9kXW-54" value="1" style="text;html=1;align=center;verticalAlign=middle;whiteSpace=wrap;rounded=0;" vertex="1" parent="1">
          <mxGeometry x="280" y="330" width="60" height="30" as="geometry" />
        </mxCell>
        <mxCell id="M3dlWLlhvhkL5nvw9kXW-55" value="TEACHER" style="rounded=0;whiteSpace=wrap;html=1;" vertex="1" parent="1">
          <mxGeometry x="220" y="370" width="100" height="50" as="geometry" />
        </mxCell>
        <mxCell id="M3dlWLlhvhkL5nvw9kXW-56" value="&lt;u&gt;TeacherID&lt;/u&gt;" style="ellipse;whiteSpace=wrap;html=1;" vertex="1" parent="1">
          <mxGeometry x="92.5" y="440" width="115" height="50" as="geometry" />
        </mxCell>
        <mxCell id="M3dlWLlhvhkL5nvw9kXW-57" value="" style="endArrow=none;html=1;rounded=0;exitX=0.5;exitY=0;exitDx=0;exitDy=0;" edge="1" parent="1" source="M3dlWLlhvhkL5nvw9kXW-56">
          <mxGeometry width="50" height="50" relative="1" as="geometry">
            <mxPoint x="272.5" y="420" as="sourcePoint" />
            <mxPoint x="242.5" y="420" as="targetPoint" />
          </mxGeometry>
        </mxCell>
        <mxCell id="M3dlWLlhvhkL5nvw9kXW-58" value="" style="endArrow=none;html=1;rounded=0;" edge="1" parent="1">
          <mxGeometry width="50" height="50" relative="1" as="geometry">
            <mxPoint x="272.5" y="460" as="sourcePoint" />
            <mxPoint x="272.5" y="420" as="targetPoint" />
          </mxGeometry>
        </mxCell>
        <mxCell id="M3dlWLlhvhkL5nvw9kXW-59" value="FirstName-Init" style="ellipse;whiteSpace=wrap;html=1;" vertex="1" parent="1">
          <mxGeometry x="225" y="450" width="105" height="50" as="geometry" />
        </mxCell>
        <mxCell id="M3dlWLlhvhkL5nvw9kXW-60" value="LastName" style="ellipse;whiteSpace=wrap;html=1;" vertex="1" parent="1">
          <mxGeometry x="360" y="450" width="105" height="50" as="geometry" />
        </mxCell>
        <mxCell id="M3dlWLlhvhkL5nvw9kXW-61" value="" style="endArrow=none;html=1;rounded=0;entryX=0;entryY=0;entryDx=0;entryDy=0;" edge="1" parent="1" target="M3dlWLlhvhkL5nvw9kXW-60">
          <mxGeometry width="50" height="50" relative="1" as="geometry">
            <mxPoint x="290" y="420" as="sourcePoint" />
            <mxPoint x="340" y="370" as="targetPoint" />
          </mxGeometry>
        </mxCell>
      </root>
    </mxGraphModel>
  </diagram>
</mxfile>
